# xmcd
#
# Track frame offsets:
# 150
# 16554
# 29080
# 45659
# 62157
# 77729
# 90446
# 105808
# 123572
# 141426
# 155644
# 169433
# 183025
# 197577
# 209287
# 228193
# 246564
# 261145
# 276531
# 295857
#
# Disc length: 4197 seconds
#
#
# Revision: 0
# Processed by: cddbd v1.5.1PL2 Copyright (c) Steve Scherf et al.
# Submitted via: FreeRIP 2.944 
#
DISCID=1d106314
DTITLE=Cezar and Paulinho - As 20 mais
DYEAR=1900
DGENRE=Vocal
TTITLE0=Prá lá do meio
TTITLE1=Soca pilão
TTITLE2=Nóis é caubói
TTITLE3=O feijão e a flor
TTITLE4=tchaca tchaca na butchaca
TTITLE5=Zé de baixo, Zé de cima
TTITLE6=Duas vezes você
TTITLE7=Boboca e bobão
TTITLE8=Viajante Solitário
TTITLE9=Porque
TTITLE10=Vai de roda
TTITLE11=Asa Delta
TTITLE12=Balançando o esqueleto
TTITLE13=Pé de bode
TTITLE14=Tanto tempo longe de você
TTITLE15=Chique no urtimo
TTITLE16=Você é tudo que pedi pra Deus
TTITLE17=Só por você
TTITLE18=Forró-bailão
TTITLE19=Feitos um pro outro
EXTD=
EXTT0=
EXTT1=
EXTT2=
EXTT3=
EXTT4=
EXTT5=
EXTT6=
EXTT7=
EXTT8=
EXTT9=
EXTT10=
EXTT11=
EXTT12=
EXTT13=
EXTT14=
EXTT15=
EXTT16=
EXTT17=
EXTT18=
EXTT19=
PLAYORDER=
